<?xml version="1.0" standalone="no"?>
<!DOCTYPE svg PUBLIC "-//W3C//DTD SVG 20010904//EN"
 "http://www.w3.org/TR/2001/REC-SVG-20010904/DTD/svg10.dtd">
<svg version="1.0" xmlns="http://www.w3.org/2000/svg"
 width="2000.000000pt" height="1500.000000pt" viewBox="0 0 2000.000000 1500.000000"
 preserveAspectRatio="xMidYMid meet">

<g transform="translate(0.000000,1500.000000) scale(0.100000,-0.100000)"
fill="#000000" stroke="none">
<path d="M0 7500 l0 -7500 10000 0 10000 0 0 7500 0 7500 -10000 0 -10000 0 0
-7500z m3527 4891 c218 -55 350 -174 410 -366 17 -58 18 -219 18 -4520 0
-4301 -1 -4462 -18 -4520 -60 -194 -192 -311 -415 -368 -76 -19 -113 -22 -297
-22 -185 0 -220 3 -294 23 -228 60 -362 188 -412 392 -12 46 -14 773 -14 4495
0 3722 2 4449 14 4495 51 205 188 335 408 390 115 28 122 28 328 25 153 -2
206 -7 272 -24z m5168 0 c231 -61 366 -188 416 -391 12 -46 14 -773 14 -4495
0 -3722 -2 -4449 -14 -4495 -50 -203 -183 -328 -416 -392 -71 -19 -105 -22
-300 -22 -196 0 -229 3 -300 22 -237 65 -372 203 -410 417 -21 119 -21 8820 0
8938 42 238 198 380 478 433 114 21 429 13 532 -15z m7059 -46 c282 -43 632
-179 948 -369 388 -233 654 -619 747 -1081 39 -195 43 -256 48 -783 5 -556 0
-666 -38 -768 -93 -248 -341 -365 -744 -350 -180 6 -272 25 -383 76 -135 63
-219 161 -268 310 -16 49 -18 113 -24 570 -7 580 -8 587 -89 757 -95 199 -204
307 -367 364 -155 54 -112 52 -1309 56 -734 3 -1147 1 -1220 -6 -193 -19 -341
-75 -445 -168 -94 -85 -189 -260 -233 -430 l-22 -88 0 -2930 0 -2930 22 -88
c30 -115 70 -208 133 -306 115 -179 277 -266 545 -292 73 -7 486 -9 1220 -6
1197 4 1154 2 1309 56 163 57 272 165 367 364 80 169 82 178 89 747 6 444 9
512 24 560 43 133 121 232 232 292 179 97 539 123 789 57 165 -43 293 -138
352 -261 58 -119 58 -123 58 -733 -1 -482 -3 -577 -18 -680 -83 -559 -304
-924 -736 -1214 -282 -190 -583 -323 -876 -389 l-120 -26 -1500 -4 c-1636 -3
-1586 -4 -1811 54 -296 77 -687 276 -929 474 -219 179 -406 448 -500 719 -42
122 -80 302 -95 450 -14 144 -14 6194 1 6329 61 568 324 1015 752 1280 335
207 721 356 1022 395 17 2 692 5 1500 5 1260 2 1484 0 1569 -13z m-9692 -3653
c180 -48 328 -133 457 -261 212 -210 316 -487 296 -790 -16 -252 -104 -455
-274 -634 -91 -96 -172 -158 -271 -207 -156 -78 -276 -104 -470 -104 -162 1
-256 18 -389 73 -220 91 -441 312 -532 532 -58 141 -73 226 -73 409 1 145 4
177 27 264 100 374 404 659 782 732 103 20 347 12 447 -14z"/>
</g>
</svg>
